<svg xmlns="http://www.w3.org/2000/svg" xmlns:xlink="http://www.w3.org/1999/xlink" width="551pt" height="366pt" viewBox="0.00 0.00 551.00 365.81">
<g id="graph0" class="graph" transform="scale(1 1) rotate(0) translate(4 361.81)">
<title>G</title>
<polygon fill="white" stroke="none" points="-4,4 -4,-361.81 547,-361.81 547,4 -4,4"/>
<g id="clust1" class="cluster">
<title>cluster_Books</title>
<polygon fill="lightgrey" stroke="lightgrey" points="8,-8 8,-228.8 236,-228.8 236,-8 8,-8"/>
<text text-anchor="middle" x="122" y="-212.2" font-family="Times,serif" font-size="14.00">Books &amp; Editions</text>
</g>
<g id="clust2" class="cluster">
<title>cluster_Users</title>
<polygon fill="lightblue" stroke="lightblue" points="244,-80 244,-228.8 410,-228.8 410,-80 244,-80"/>
<text text-anchor="middle" x="327" y="-212.2" font-family="Times,serif" font-size="14.00">Users &amp; Loans</text>
</g>
<g id="clust3" class="cluster">
<title>cluster_Bibuses</title>
<polygon fill="yellow" stroke="yellow" points="418,-80 418,-228.8 535,-228.8 535,-80 418,-80"/>
<text text-anchor="middle" x="476.5" y="-212.2" font-family="Times,serif" font-size="14.00">Bibuses &amp; Routes</text>
</g>
<g id="clust4" class="cluster">
<title>cluster_Towns</title>
<polygon fill="green" stroke="green" points="240,-236.8 240,-313.6 343,-313.6 343,-236.8 240,-236.8"/>
<text text-anchor="middle" x="291.5" y="-297" font-family="Times,serif" font-size="14.00">Towns &amp; Users</text>
</g>
<g id="clust5" class="cluster">
<title>cluster_Library_Staff</title>
<polygon fill="red" stroke="red" points="351,-236.8 351,-313.6 495,-313.6 495,-236.8 351,-236.8"/>
<text text-anchor="middle" x="423" y="-297" font-family="Times,serif" font-size="14.00">Library Staff</text>
</g>
<!-- Books -->
<g id="node1" class="node">
<title>Books</title>
<ellipse fill="white" stroke="white" cx="184" cy="-178" rx="35.72" ry="18"/>
<text text-anchor="middle" x="184" y="-173.8" font-family="Times,serif" font-size="14.00">Books</text>
</g>
<!-- Editions -->
<g id="node2" class="node">
<title>Editions</title>
<ellipse fill="white" stroke="white" cx="184" cy="-106" rx="43.23" ry="18"/>
<text text-anchor="middle" x="184" y="-101.8" font-family="Times,serif" font-size="14.00">Editions</text>
</g>
<!-- Books&#45;&gt;Editions -->
<g id="edge1" class="edge">
<title>Books-&gt;Editions</title>
<path fill="none" stroke="black" d="M178.12,-160.05C177.34,-152.68 177.08,-143.84 177.35,-135.51"/>
<polygon fill="black" stroke="black" points="180.83,-135.99 177.99,-125.79 173.84,-135.54 180.83,-135.99"/>
</g>
<!-- Books&#45;&gt;Editions -->
<g id="edge3" class="edge">
<title>Books-&gt;Editions</title>
<path fill="none" stroke="black" d="M189.88,-160.05C190.66,-152.68 190.92,-143.84 190.65,-135.51"/>
<polygon fill="black" stroke="black" points="194.16,-135.54 190.01,-125.79 187.17,-135.99 194.16,-135.54"/>
</g>
<!-- Publications -->
<g id="node3" class="node">
<title>Publications</title>
<ellipse fill="white" stroke="white" cx="75" cy="-34" rx="58.78" ry="18"/>
<text text-anchor="middle" x="75" y="-29.8" font-family="Times,serif" font-size="14.00">Publications</text>
</g>
<!-- Editions&#45;&gt;Publications -->
<g id="edge2" class="edge">
<title>Editions-&gt;Publications</title>
<path fill="none" stroke="black" d="M157.53,-91.5C141.3,-81.94 120.66,-68.88 104.01,-57.72"/>
<polygon fill="black" stroke="black" points="106.22,-54.99 95.99,-52.26 102.29,-60.78 106.22,-54.99"/>
</g>
<!-- Editions&#45;&gt;Publications -->
<g id="edge18" class="edge">
<title>Editions-&gt;Publications</title>
<path fill="none" stroke="black" d="M165.28,-89.29C150.98,-79.36 130.98,-66.41 113.38,-55.66"/>
<polygon fill="black" stroke="black" points="115.57,-52.89 105.2,-50.72 111.96,-58.88 115.57,-52.89"/>
</g>
<!-- Copies -->
<g id="node4" class="node">
<title>Copies</title>
<ellipse fill="white" stroke="white" cx="190" cy="-34" rx="37.86" ry="18"/>
<text text-anchor="middle" x="190" y="-29.8" font-family="Times,serif" font-size="14.00">Copies</text>
</g>
<!-- Editions&#45;&gt;Copies -->
<g id="edge4" class="edge">
<title>Editions-&gt;Copies</title>
<path fill="none" stroke="black" d="M179.57,-87.7C179.44,-80.32 179.95,-71.52 180.94,-63.25"/>
<polygon fill="black" stroke="black" points="184.37,-64.01 182.41,-53.6 177.45,-62.96 184.37,-64.01"/>
</g>
<!-- Editions&#45;&gt;Copies -->
<g id="edge19" class="edge">
<title>Editions-&gt;Copies</title>
<path fill="none" stroke="black" d="M191.33,-88.05C192.74,-80.68 193.76,-71.84 194.2,-63.51"/>
<polygon fill="black" stroke="black" points="197.7,-63.86 194.4,-53.79 190.7,-63.71 197.7,-63.86"/>
</g>
<!-- Users -->
<g id="node5" class="node">
<title>Users</title>
<ellipse fill="white" stroke="white" cx="297" cy="-178" rx="33.03" ry="18"/>
<text text-anchor="middle" x="297" y="-173.8" font-family="Times,serif" font-size="14.00">Users</text>
</g>
<!-- Loans -->
<g id="node6" class="node">
<title>Loans</title>
<ellipse fill="white" stroke="white" cx="367" cy="-106" rx="34.64" ry="18"/>
<text text-anchor="middle" x="367" y="-101.8" font-family="Times,serif" font-size="14.00">Loans</text>
</g>
<!-- Users&#45;&gt;Loans -->
<g id="edge5" class="edge">
<title>Users-&gt;Loans</title>
<path fill="none" stroke="black" d="M296.56,-159.7C303.94,-149 317.6,-135.32 331.6,-124.57"/>
<polygon fill="black" stroke="black" points="333.46,-127.55 339.55,-118.88 329.38,-121.85 333.46,-127.55"/>
</g>
<!-- Users&#45;&gt;Loans -->
<g id="edge20" class="edge">
<title>Users-&gt;Loans</title>
<path fill="none" stroke="black" d="M316.33,-163.17C326.44,-154.27 338.6,-142.44 348.56,-131.93"/>
<polygon fill="black" stroke="black" points="351.09,-134.35 355.3,-124.62 345.95,-129.61 351.09,-134.35"/>
</g>
<!-- Posts -->
<g id="node7" class="node">
<title>Posts</title>
<ellipse fill="white" stroke="white" cx="283" cy="-106" rx="31.43" ry="18"/>
<text text-anchor="middle" x="283" y="-101.8" font-family="Times,serif" font-size="14.00">Posts</text>
</g>
<!-- Users&#45;&gt;Posts -->
<g id="edge6" class="edge">
<title>Users-&gt;Posts</title>
<path fill="none" stroke="black" d="M287.84,-160.41C285.51,-152.85 283.41,-143.69 281.99,-135.1"/>
<polygon fill="black" stroke="black" points="285.49,-134.91 280.71,-125.46 278.55,-135.83 285.49,-134.91"/>
</g>
<!-- Users&#45;&gt;Posts -->
<g id="edge21" class="edge">
<title>Users-&gt;Posts</title>
<path fill="none" stroke="black" d="M299.46,-159.7C298.72,-152.13 297.14,-143.06 295.13,-134.59"/>
<polygon fill="black" stroke="black" points="298.55,-133.82 292.56,-125.08 291.79,-135.65 298.55,-133.82"/>
</g>
<!-- Loans&#45;&gt;Copies -->
<g id="edge7" class="edge">
<title>Loans-&gt;Copies</title>
<path fill="none" stroke="black" d="M340.71,-93.74C332.18,-89.13 322.82,-83.95 314,-80 286.8,-67.81 255.24,-56.99 230.68,-49.03"/>
<polygon fill="black" stroke="black" points="231.95,-45.76 221.36,-46.03 229.81,-52.43 231.95,-45.76"/>
</g>
<!-- Loans&#45;&gt;Copies -->
<g id="edge22" class="edge">
<title>Loans-&gt;Copies</title>
<path fill="none" stroke="black" d="M351.02,-89.88C345.12,-86.4 338.41,-82.88 332,-80 300.58,-65.91 263.34,-53.67 234.76,-45.53"/>
<polygon fill="black" stroke="black" points="235.9,-42.21 225.33,-42.91 234.03,-48.96 235.9,-42.21"/>
</g>
<!-- Loans&#45;&gt;Users -->
<g id="edge8" class="edge">
<title>Loans-&gt;Users</title>
<path fill="none" stroke="black" d="M347.19,-121.25C337.07,-130.2 324.97,-141.99 315.11,-152.42"/>
<polygon fill="black" stroke="black" points="312.65,-149.92 308.46,-159.65 317.8,-154.66 312.65,-149.92"/>
</g>
<!-- Loans&#45;&gt;Users -->
<g id="edge23" class="edge">
<title>Loans-&gt;Users</title>
<path fill="none" stroke="black" d="M367.46,-124.28C360,-135.09 346.11,-148.97 331.95,-159.78"/>
<polygon fill="black" stroke="black" points="330.02,-156.85 323.89,-165.49 334.07,-162.56 330.02,-156.85"/>
</g>
<!-- Bibuses -->
<g id="node8" class="node">
<title>Bibuses</title>
<ellipse fill="white" stroke="white" cx="468" cy="-178" rx="41.62" ry="18"/>
<text text-anchor="middle" x="468" y="-173.8" font-family="Times,serif" font-size="14.00">Bibuses</text>
</g>
<!-- Routes -->
<g id="node9" class="node">
<title>Routes</title>
<ellipse fill="white" stroke="white" cx="468" cy="-106" rx="37.86" ry="18"/>
<text text-anchor="middle" x="468" y="-101.8" font-family="Times,serif" font-size="14.00">Routes</text>
</g>
<!-- Bibuses&#45;&gt;Routes -->
<g id="edge9" class="edge">
<title>Bibuses-&gt;Routes</title>
<path fill="none" stroke="black" d="M462.08,-159.7C461.33,-152.41 461.09,-143.73 461.35,-135.54"/>
<polygon fill="black" stroke="black" points="464.84,-135.82 462.01,-125.61 457.86,-135.36 464.84,-135.82"/>
</g>
<!-- Bibuses&#45;&gt;Routes -->
<g id="edge24" class="edge">
<title>Bibuses-&gt;Routes</title>
<path fill="none" stroke="black" d="M473.92,-159.7C474.67,-152.41 474.91,-143.73 474.65,-135.54"/>
<polygon fill="black" stroke="black" points="478.14,-135.36 473.99,-125.61 471.16,-135.82 478.14,-135.36"/>
</g>
<!-- Towns -->
<g id="node10" class="node">
<title>Towns</title>
<ellipse fill="white" stroke="white" cx="297" cy="-262.8" rx="37.32" ry="18"/>
<text text-anchor="middle" x="297" y="-258.6" font-family="Times,serif" font-size="14.00">Towns</text>
</g>
<!-- Towns&#45;&gt;Users -->
<g id="edge10" class="edge">
<title>Towns-&gt;Users</title>
<path fill="none" stroke="black" d="M291.41,-244.64C290.24,-233.87 289.95,-219.73 290.56,-207.32"/>
<polygon fill="black" stroke="black" points="294.03,-207.88 291.29,-197.64 287.05,-207.35 294.03,-207.88"/>
</g>
<!-- Towns&#45;&gt;Users -->
<g id="edge25" class="edge">
<title>Towns-&gt;Users</title>
<path fill="none" stroke="black" d="M302.59,-244.64C303.76,-233.87 304.05,-219.73 303.44,-207.32"/>
<polygon fill="black" stroke="black" points="306.95,-207.35 302.71,-197.64 299.97,-207.88 306.95,-207.35"/>
</g>
<!-- Library_Staff -->
<g id="node11" class="node">
<title>Library_Staff</title>
<ellipse fill="white" stroke="white" cx="423" cy="-262.8" rx="63.59" ry="18"/>
<text text-anchor="middle" x="423" y="-258.6" font-family="Times,serif" font-size="14.00">Library_Staff</text>
</g>
<!-- Library_Staff&#45;&gt;Loans -->
<g id="edge12" class="edge">
<title>Library_Staff-&gt;Loans</title>
<path fill="none" stroke="black" d="M412.36,-244.64C400.02,-218.14 381.21,-166.98 371.81,-135.05"/>
<polygon fill="black" stroke="black" points="375.25,-134.39 369.2,-125.69 368.51,-136.27 375.25,-134.39"/>
</g>
<!-- Library_Staff&#45;&gt;Loans -->
<g id="edge27" class="edge">
<title>Library_Staff-&gt;Loans</title>
<path fill="none" stroke="black" d="M421.15,-244.34C414.14,-217.32 395.54,-165.19 381.82,-133.51"/>
<polygon fill="black" stroke="black" points="385.11,-132.29 377.82,-124.61 378.73,-135.16 385.11,-132.29"/>
</g>
<!-- Library_Staff&#45;&gt;Bibuses -->
<g id="edge11" class="edge">
<title>Library_Staff-&gt;Bibuses</title>
<path fill="none" stroke="black" d="M426.73,-244.64C431.7,-233.21 439.75,-217.96 447.53,-205.04"/>
<polygon fill="black" stroke="black" points="450.49,-206.9 452.85,-196.57 444.56,-203.18 450.49,-206.9"/>
</g>
<!-- Library_Staff&#45;&gt;Bibuses -->
<g id="edge26" class="edge">
<title>Library_Staff-&gt;Bibuses</title>
<path fill="none" stroke="black" d="M437.66,-245.04C444.91,-233.97 453.22,-219.19 459.49,-206.43"/>
<polygon fill="black" stroke="black" points="462.52,-208.22 463.57,-197.67 456.17,-205.26 462.52,-208.22"/>
</g>
<!-- start -->
<g id="node12" class="node">
<title>start</title>
<polygon fill="none" stroke="black" points="297,-357.71 257.88,-339.71 297,-321.71 336.12,-339.71 297,-357.71"/>
<polyline fill="none" stroke="black" points="268.78,-344.72 268.78,-334.69"/>
<polyline fill="none" stroke="black" points="286.1,-326.72 307.9,-326.72"/>
<polyline fill="none" stroke="black" points="325.22,-334.69 325.22,-344.72"/>
<polyline fill="none" stroke="black" points="307.9,-352.69 286.1,-352.69"/>
<text text-anchor="middle" x="297" y="-335.51" font-family="Times,serif" font-size="14.00">start</text>
</g>
<!-- start&#45;&gt;Books -->
<g id="edge13" class="edge">
<title>start-&gt;Books</title>
<path fill="none" stroke="black" d="M265.88,-335.58C250.14,-332.44 231.9,-326.15 220,-313.6 192.8,-284.9 185.66,-237.96 184.05,-207.79"/>
<polygon fill="black" stroke="black" points="187.55,-207.75 183.71,-197.87 180.55,-207.99 187.55,-207.75"/>
</g>
<!-- start&#45;&gt;Users -->
<g id="edge14" class="edge">
<title>start-&gt;Users</title>
<path fill="none" stroke="black" d="M268.86,-334.3C256.61,-330.83 243.39,-324.64 236,-313.6 217,-285.24 222.51,-268.16 236,-236.8 242.43,-221.85 254.84,-208.95 266.8,-199.16"/>
<polygon fill="black" stroke="black" points="268.74,-202.08 274.55,-193.21 264.48,-196.52 268.74,-202.08"/>
</g>
<!-- start&#45;&gt;Bibuses -->
<g id="edge15" class="edge">
<title>start-&gt;Bibuses</title>
<path fill="none" stroke="black" d="M316.25,-330.4C324.88,-327.06 335.28,-323.54 345,-321.6 361.8,-318.24 487.2,-326.03 499,-313.6 526.89,-284.23 504.48,-235.02 486.01,-204.94"/>
<polygon fill="black" stroke="black" points="489.13,-203.33 480.79,-196.8 483.24,-207.11 489.13,-203.33"/>
</g>
<!-- start&#45;&gt;Towns -->
<g id="edge16" class="edge">
<title>start-&gt;Towns</title>
<path fill="none" stroke="black" d="M297,-321.33C297,-312.73 297,-302.12 297,-292.36"/>
<polygon fill="black" stroke="black" points="300.5,-292.59 297,-282.59 293.5,-292.59 300.5,-292.59"/>
</g>
<!-- start&#45;&gt;Library_Staff -->
<g id="edge17" class="edge">
<title>start-&gt;Library_Staff</title>
<path fill="none" stroke="black" d="M315.79,-329.91C325.28,-325.3 336.9,-319.42 347,-313.6 361.63,-305.17 377.31,-295.09 390.6,-286.2"/>
<polygon fill="black" stroke="black" points="392.23,-289.33 398.56,-280.83 388.31,-283.53 392.23,-289.33"/>
</g>
<!-- end -->
<g id="node13" class="node">
<title>end</title>
<polygon fill="none" stroke="black" points="390.11,-357.81 353.89,-357.81 353.89,-321.6 390.11,-321.6 390.11,-357.81"/>
<polyline fill="none" stroke="black" points="365.89,-357.81 353.89,-345.81"/>
<polyline fill="none" stroke="black" points="353.89,-333.6 365.89,-321.6"/>
<polyline fill="none" stroke="black" points="378.11,-321.6 390.11,-333.6"/>
<polyline fill="none" stroke="black" points="390.11,-345.81 378.11,-357.81"/>
<text text-anchor="middle" x="372" y="-335.51" font-family="Times,serif" font-size="14.00">end</text>
</g>
</g>
</svg>